<svg class="thumb" width="1000" height="1000" viewBox="0,0,600,600" xmlns="http://www.w3.org/2000/svg" xmlns:inkscape="http://www.inkscape.org/namespaces/inkscape" xmlns:sodipodi="http://sodipodi.sourceforge.net/DTD/sodipodi-0.dtd" xmlns:xlink="http://www.w3.org/1999/xlink" xmlns:ns1="http://www.inkscape.org/namespaces/inkscape" xmlns:sketch="http://www.bohemiancoding.com/sketch/ns">
  <defs></defs>
  <g transform="matrix(1.6238,0,0,1.6238,-71.7816,216.5861)">
    <g transform="matrix(0.2136,0,0,0.2136,391.9265,49.3422)">
      <svg width="20.499999999999996" height="13.725000000000001" viewBox="15.700000000000003,9.075,20.499999999999996,13.725000000000001">
        <defs>
          <linearGradient x1="0" y1="0.5" x2="1" y2="0.5" id="linearGradientSjy538cqc4">
            <stop offset="0%" stop-color="#2dad67"></stop>
            <stop offset="100%" stop-color="#2dad67"></stop>
          </linearGradient>
        </defs>
        <g>
          <path d="M30.2,17.8c-0.3,0-0.5-0.1-0.7-0.3c-1.9-1.9-5.1-1.9-7.1,0c-0.4,0.4-1,0.4-1.4,0s-0.4-1,0-1.4c2.7-2.7,7.2-2.7,9.9,0     c0.4,0.4,0.4,1,0,1.4C30.8,17.7,30.5,17.8,30.2,17.8z" stroke="none" fill="url('#linearGradientSjy538cqc4')" style=""></path>
        </g>
      </svg>
    </g>
    <g transform="matrix(0.5718,0,0,0.5718,72.5463,28.9088)">
      <svg width="71.4" height="181" style="overflow: visible;">
        <defs>
          <linearGradient x1="0" y1="0.5" x2="1" y2="0.5" id="linearGradientSjy538cqcy">
            <stop offset="0%" stop-color="#2dad67"></stop>
            <stop offset="100%" stop-color="#2dad67"></stop>
          </linearGradient>
        </defs>
        <g transform="matrix(1,0,0,1,0,90.75)">
          <path d="M 42.2-44.2L 42.2-44.2L 59.8-44.2Q 65.2-44  66.4-41.4L 66.4-41.4Q 67.4-39.5  67.4-35.8L 67.4-35.8L 67.4-13.8Q 67.4-10.6  64.6-7.7L 64.6-7.7Q 56.2 1  39.4 1L 39.4 1Q 24.5 1  13.5-10.25Q 2.5-21.5  2.5-37.4Q 2.5-53.3  13.7-63.95Q 24.9-74.6  40.1-74.6L 40.1-74.6Q 51.9-74.6  62.4-66.8L 62.4-66.8Q 65.1-64.8  65.1-62.35Q 65.1-59.9  62.8-56.7L 62.8-56.7Q 58.9-51.4  55.7-51.4L 55.7-51.4Q 53.8-51.4  49.6-54.15Q 45.4-56.9  39.6-56.9L 39.6-56.9Q 32-56.9  26.1-51.55Q 20.2-46.2  20.2-37.55Q 20.2-28.9  26.2-22.85Q 32.2-16.8  39.8-16.8L 39.8-16.8Q 45.3-16.8  49.7-18.6L 49.7-18.6L 49.7-29.5L 41.8-29.5Q 38.7-29.5  37.4-30.3Q 36.1-31.1  35.7-32.65Q 35.3-34.2  35.3-36.85Q 35.3-39.5  35.75-41.1Q 36.2-42.7  37.4-43.3L 37.4-43.3Q 39.2-44.2  42.2-44.2Z" data-textpath="G" data-text-anchor="middle" data-font-size="100" data-letterspacing="0" data-side="left" data-offset="0.5" data-dx="0" data-dy="0" data-xmlspace="preserve" data-href="" data-font="Fredoka One" data-font-src="/Content/clientfonts/fredokaone.woff" data-font-scale="contain" transform="translate(0,0)" data-x="0" data-y="0" fill="url('#linearGradientSjy538cqcy')"></path>
        </g>
      </svg>
    </g>
    <g transform="matrix(2.2423,0,0,2.3391,51.4701,0.7194)">
      <svg width="37.4" height="17.25" viewBox="7.299999999999997,-2.9500000000000006,37.4,17.25">
        <defs>
          <linearGradient x1="0" y1="0.5" x2="1" y2="0.5" id="linearGradientSjy538cqce">
            <stop offset="0%" stop-color="#2dad67"></stop>
            <stop offset="100%" stop-color="#2dad67"></stop>
          </linearGradient>
        </defs>
        <g>
          <path d="M38.7,9.3c-0.3,0-0.5-0.1-0.7-0.3c-6.6-6.6-17.4-6.6-24,0c-0.4,0.4-1,0.4-1.4,0s-0.4-1,0-1.4C20,0.2,32,0.2,39.4,7.6     c0.4,0.4,0.4,1,0,1.4C39.2,9.2,39,9.3,38.7,9.3z" stroke="none" fill="url('#linearGradientSjy538cqce')" style=""></path>
        </g>
      </svg>
    </g>
    <g transform="matrix(2.1909,0,0,2.1909,61.8295,9.7759)">
      <svg width="29" height="15.500000000000002" viewBox="11.5,3,29,15.500000000000002">
        <defs>
          <linearGradient x1="0" y1="0.5" x2="1" y2="0.5" id="linearGradientSjy538cqck">
            <stop offset="0%" stop-color="#2dad67"></stop>
            <stop offset="100%" stop-color="#2dad67"></stop>
          </linearGradient>
        </defs>
        <g>
          <path d="M17.5,13.5c-0.3,0-0.5-0.1-0.7-0.3c-0.4-0.4-0.4-1,0-1.4C19.3,9.4,22.5,8,26,8c3.5,0,6.7,1.4,9.2,3.8     c0.4,0.4,0.4,1,0,1.4s-1,0.4-1.4,0C31.7,11.1,28.9,10,26,10c-2.9,0-5.7,1.1-7.8,3.2C18,13.4,17.8,13.5,17.5,13.5z" stroke="none" fill="url('#linearGradientSjy538cqck')" style=""></path>
        </g>
      </svg>
    </g>
    <g transform="matrix(2.7489,0,0,2.2181,65.0842,17.6112)">
      <svg width="20.499999999999996" height="13.725000000000001" viewBox="15.700000000000003,9.075,20.499999999999996,13.725000000000001">
        <defs>
          <linearGradient x1="0" y1="0.5" x2="1" y2="0.5" id="linearGradientSjy538cqcq">
            <stop offset="0%" stop-color="#2dad67"></stop>
            <stop offset="100%" stop-color="#2dad67"></stop>
          </linearGradient>
        </defs>
        <g>
          <path d="M30.2,17.8c-0.3,0-0.5-0.1-0.7-0.3c-1.9-1.9-5.1-1.9-7.1,0c-0.4,0.4-1,0.4-1.4,0s-0.4-1,0-1.4c2.7-2.7,7.2-2.7,9.9,0     c0.4,0.4,0.4,1,0,1.4C30.8,17.7,30.5,17.8,30.2,17.8z" stroke="none" fill="url('#linearGradientSjy538cqcq')" style=""></path>
        </g>
      </svg>
    </g>
    <g transform="matrix(0.5,0,0,0.5,113.7842,31.25)">
      <svg width="262.6953125" height="187" style="overflow: visible;">
        <defs>
          <linearGradient x1="0" y1="0.5" x2="1" y2="0.5" id="linearGradientSjy538cqc11">
            <stop offset="0%" stop-color="#2dad67"></stop>
            <stop offset="100%" stop-color="#2dad67"></stop>
          </linearGradient>
        </defs>
        <g transform="matrix(1,0,0,1,0,95.25)">
          <path d="M 29.15-12.7L 29.15 0L 23.49 0Q 20.75 0  17.65-0.93Q 14.55-1.86  11.87-3.98Q 9.18-6.1  7.42-9.5Q 5.66-12.89  5.66-17.82L 5.66-17.82L 5.66-75.1L 18.36-75.1L 18.36-17.82Q 18.36-15.48  19.82-14.09Q 21.29-12.7  23.49-12.7L 23.49-12.7L 29.15-12.7ZM 50.197656250000016-75.1L 50.197656250000016-63.62L 37.49765625000001-63.62L 37.49765625000001-75.1L 50.197656250000016-75.1ZM 50.197656250000016-52.78L 50.197656250000016 0L 37.49765625000001 0L 37.49765625000001-52.78L 50.197656250000016-52.78ZM 119.776484375-35.01L 119.776484375 5.08Q 119.776484375 8.35  118.946484375 10.96Q 118.116484375 13.57  116.746484375 15.55Q 115.37648437499999 17.53  113.576484375 18.92Q 111.766484375 20.31  109.786484375 21.19Q 107.816484375 22.07  105.786484375 22.49Q 103.756484375 22.9  101.956484375 22.9L 101.956484375 22.9L 79.056484375 22.9L 79.056484375 10.21L 101.956484375 10.21Q 104.536484375 10.21  105.806484375 8.89Q 107.076484375 7.57  107.076484375 5.08L 107.076484375 5.08L 107.076484375-35.01Q 107.076484375-37.5  105.806484375-38.79Q 104.536484375-40.09  101.956484375-40.09L 101.956484375-40.09L 79.056484375-40.09Q 76.706484375-40.09  75.346484375-38.65Q 73.976484375-37.21  73.976484375-35.01L 73.976484375-35.01L 73.976484375-17.82Q 73.976484375-15.33  75.296484375-14.01Q 76.60648437500001-12.7  79.146484375-12.7L 79.146484375-12.7L 101.956484375-12.7L 101.956484375 0L 79.056484375 0Q 77.246484375 0  75.246484375-0.42Q 73.246484375-0.83  71.266484375-1.71Q 69.286484375-2.59  67.476484375-3.98Q 65.676484375-5.37  64.306484375-7.35Q 62.936484375-9.33  62.106484375-11.94Q 61.276484375-14.55  61.276484375-17.82L 61.276484375-17.82L 61.276484375-35.01Q 61.276484375-36.82  61.696484375-38.82Q 62.106484375-40.82  62.986484375-42.8Q 63.866484375-44.78  65.256484375-46.58Q 66.646484375-48.39  68.626484375-49.76Q 70.60648437500001-51.12  73.196484375-51.95Q 75.776484375-52.78  79.056484375-52.78L 79.056484375-52.78L 101.956484375-52.78Q 103.756484375-52.78  105.786484375-52.37Q 107.816484375-51.95  109.786484375-51.07Q 111.766484375-50.2  113.576484375-48.8Q 115.37648437499999-47.41  116.746484375-45.43Q 118.116484375-43.46  118.946484375-40.87Q 119.776484375-38.28  119.776484375-35.01L 119.776484375-35.01ZM 188.81945312499997-35.01L 188.81945312499997 5.08Q 188.81945312499997 8.35  187.98945312499995 10.96Q 187.15945312499997 13.57  185.78945312499997 15.55Q 184.41945312499996 17.53  182.61945312499998 18.92Q 180.80945312499998 20.31  178.829453125 21.19Q 176.85945312499996 22.07  174.829453125 22.49Q 172.79945312499996 22.9  170.99945312499997 22.9L 170.99945312499997 22.9L 148.09945312499997 22.9L 148.09945312499997 10.21L 170.99945312499997 10.21Q 173.579453125 10.21  174.84945312499997 8.89Q 176.11945312499998 7.57  176.11945312499998 5.08L 176.11945312499998 5.08L 176.11945312499998-35.01Q 176.11945312499998-37.5  174.84945312499997-38.79Q 173.579453125-40.09  170.99945312499997-40.09L 170.99945312499997-40.09L 148.09945312499997-40.09Q 145.74945312499997-40.09  144.38945312499996-38.65Q 143.01945312499998-37.21  143.01945312499998-35.01L 143.01945312499998-35.01L 143.01945312499998-17.82Q 143.01945312499998-15.33  144.33945312499998-14.01Q 145.64945312499998-12.7  148.18945312499997-12.7L 148.18945312499997-12.7L 170.99945312499997-12.7L 170.99945312499997 0L 148.09945312499997 0Q 146.28945312499997 0  144.28945312499997-0.42Q 142.28945312499997-0.83  140.30945312499998-1.71Q 138.329453125-2.59  136.51945312499998-3.98Q 134.71945312499997-5.37  133.34945312499997-7.35Q 131.97945312499996-9.33  131.14945312499998-11.94Q 130.31945312499997-14.55  130.31945312499997-17.82L 130.31945312499997-17.82L 130.31945312499997-35.01Q 130.31945312499997-36.82  130.73945312499998-38.82Q 131.14945312499998-40.82  132.02945312499997-42.8Q 132.90945312499997-44.78  134.29945312499996-46.58Q 135.68945312499997-48.39  137.66945312499996-49.76Q 139.64945312499998-51.12  142.23945312499998-51.95Q 144.81945312499997-52.78  148.09945312499997-52.78L 148.09945312499997-52.78L 170.99945312499997-52.78Q 172.79945312499996-52.78  174.829453125-52.37Q 176.85945312499996-51.95  178.829453125-51.07Q 180.80945312499998-50.2  182.61945312499998-48.8Q 184.41945312499996-47.41  185.78945312499997-45.43Q 187.15945312499997-43.46  187.98945312499995-40.87Q 188.81945312499997-38.28  188.81945312499997-35.01L 188.81945312499997-35.01ZM 257.862421875-35.01L 257.862421875-17.82Q 257.862421875-14.55  257.032421875-11.94Q 256.202421875-9.33  254.832421875-7.35Q 253.462421875-5.37  251.662421875-3.98Q 249.852421875-2.59  247.872421875-1.71Q 245.90242187500002-0.83  243.872421875-0.42Q 241.842421875 0  240.042421875 0L 240.042421875 0L 217.142421875 0Q 214.502421875 0  211.372421875-0.93Q 208.252421875-1.86  205.592421875-3.98Q 202.932421875-6.1  201.152421875-9.5Q 199.362421875-12.89  199.362421875-17.82L 199.362421875-17.82L 199.362421875-35.01Q 199.362421875-39.89  201.152421875-43.29Q 202.932421875-46.68  205.592421875-48.8Q 208.252421875-50.93  211.372421875-51.86Q 214.502421875-52.78  217.142421875-52.78L 217.142421875-52.78L 240.042421875-52.78Q 244.922421875-52.78  248.342421875-51.03Q 251.762421875-49.27  253.862421875-46.61Q 255.952421875-43.95  256.912421875-40.82Q 257.862421875-37.7  257.862421875-35.01L 257.862421875-35.01ZM 245.162421875-17.82L 245.162421875-34.91Q 245.162421875-37.55  243.852421875-38.82Q 242.532421875-40.09  240.042421875-40.09L 240.042421875-40.09L 217.232421875-40.09Q 214.692421875-40.09  213.382421875-38.79Q 212.06242187499998-37.5  212.06242187499998-35.01L 212.06242187499998-35.01L 212.06242187499998-17.82Q 212.06242187499998-15.33  213.382421875-14.01Q 214.692421875-12.7  217.232421875-12.7L 217.232421875-12.7L 240.042421875-12.7Q 242.622421875-12.7  243.892421875-14.01Q 245.162421875-15.33  245.162421875-17.82L 245.162421875-17.82Z" data-textpath="liggo" data-text-anchor="middle" data-font-size="100" data-letterspacing="0" data-side="left" data-offset="0.5" data-dx="0" data-dy="0" data-xmlspace="preserve" data-href="" data-font="Audiowide" data-font-src="/Content/clientfonts/audiowide.woff" data-font-scale="contain" transform="translate(0,0)" data-x="0" data-y="0" fill="url('#linearGradientSjy538cqc11')"></path>
        </g>
      </svg>
    </g>
  </g>
</svg>